<mxfile host="app.diagrams.net" modified="2022-02-15T15:51:41.838Z" agent="5.0 (Windows NT 10.0; Win64; x64) AppleWebKit/537.36 (KHTML, like Gecko) Chrome/98.0.4758.80 Safari/537.36 Edg/98.0.1108.50" etag="9l8qcMvawdmIdD75wODQ" version="16.5.3" type="github">
  <diagram name="Page-1" id="b98fa263-6416-c6ec-5b7d-78bf54ef71d0">
    <mxGraphModel dx="865" dy="483" grid="1" gridSize="10" guides="1" tooltips="1" connect="1" arrows="1" fold="1" page="1" pageScale="1.5" pageWidth="1169" pageHeight="826" background="none" math="0" shadow="0">
      <root>
        <mxCell id="0" style=";html=1;" />
        <mxCell id="1" style=";html=1;" parent="0" />
        <mxCell id="303ed1de8c2c98b4-2" value="mongodb" style="whiteSpace=wrap;html=1;rounded=1;shadow=1;strokeWidth=1;fontSize=16;align=center;fillColor=#f5f5f5;strokeColor=#666666;" parent="1" vertex="1">
          <mxGeometry x="1040" y="233" width="242" height="40" as="geometry" />
        </mxCell>
        <mxCell id="303ed1de8c2c98b4-3" value="web 服务器" style="whiteSpace=wrap;html=1;rounded=1;shadow=1;strokeWidth=1;fontSize=16;align=center;fillColor=#f5f5f5;strokeColor=#666666;" parent="1" vertex="1">
          <mxGeometry x="585" y="313" width="600" height="40" as="geometry" />
        </mxCell>
        <mxCell id="303ed1de8c2c98b4-5" value="SCADA / 实时数据推送" style="whiteSpace=wrap;html=1;rounded=1;shadow=1;strokeWidth=1;fontSize=16;align=center;fillColor=#f5f5f5;strokeColor=#666666;" parent="1" vertex="1">
          <mxGeometry x="440" y="415" width="275" height="40" as="geometry" />
        </mxCell>
        <mxCell id="303ed1de8c2c98b4-6" value="运维系统" style="whiteSpace=wrap;html=1;rounded=1;shadow=1;strokeWidth=1;fontSize=16;align=center;fillColor=#f5f5f5;strokeColor=#666666;" parent="1" vertex="1">
          <mxGeometry x="755" y="415" width="275" height="40" as="geometry" />
        </mxCell>
        <mxCell id="303ed1de8c2c98b4-7" value="系统管理" style="whiteSpace=wrap;html=1;rounded=1;shadow=1;strokeWidth=1;fontSize=16;align=center;fillColor=#f5f5f5;strokeColor=#666666;" parent="1" vertex="1">
          <mxGeometry x="118" y="415" width="275" height="40" as="geometry" />
        </mxCell>
        <mxCell id="303ed1de8c2c98b4-8" value="报表系统" style="whiteSpace=wrap;html=1;rounded=1;shadow=1;strokeWidth=1;fontSize=16;align=center;fillColor=#f5f5f5;strokeColor=#666666;" parent="1" vertex="1">
          <mxGeometry x="1057" y="415" width="275" height="40" as="geometry" />
        </mxCell>
        <mxCell id="303ed1de8c2c98b4-9" value="视频监控" style="whiteSpace=wrap;html=1;rounded=1;shadow=1;strokeWidth=1;fontSize=16;align=center;fillColor=#f5f5f5;strokeColor=#666666;" parent="1" vertex="1">
          <mxGeometry x="1357" y="415" width="275" height="40" as="geometry" />
        </mxCell>
        <mxCell id="303ed1de8c2c98b4-10" value="实时组态" style="whiteSpace=wrap;html=1;rounded=1;shadow=1;strokeWidth=1;fontSize=16;align=center;fillColor=#f5f5f5;strokeColor=#666666;" parent="1" vertex="1">
          <mxGeometry x="440" y="485" width="125" height="80" as="geometry" />
        </mxCell>
        <mxCell id="303ed1de8c2c98b4-12" value="远程控制" style="whiteSpace=wrap;html=1;rounded=1;shadow=1;strokeWidth=1;fontSize=16;align=center;fillColor=#f5f5f5;strokeColor=#666666;" parent="1" vertex="1">
          <mxGeometry x="590" y="485" width="125" height="80" as="geometry" />
        </mxCell>
        <mxCell id="303ed1de8c2c98b4-13" value="设备管理" style="whiteSpace=wrap;html=1;rounded=1;shadow=1;strokeWidth=1;fontSize=16;align=center;fillColor=#f5f5f5;strokeColor=#666666;" parent="1" vertex="1">
          <mxGeometry x="755" y="485" width="125" height="80" as="geometry" />
        </mxCell>
        <mxCell id="303ed1de8c2c98b4-14" value="&lt;span&gt;运维车队管理&lt;/span&gt;" style="whiteSpace=wrap;html=1;rounded=1;shadow=1;strokeWidth=1;fontSize=16;align=center;fillColor=#f5f5f5;strokeColor=#666666;" parent="1" vertex="1">
          <mxGeometry x="905" y="485" width="125" height="80" as="geometry" />
        </mxCell>
        <mxCell id="303ed1de8c2c98b4-15" value="用户管理" style="whiteSpace=wrap;html=1;rounded=1;shadow=1;strokeWidth=1;fontSize=16;align=center;fillColor=#f5f5f5;strokeColor=#666666;" parent="1" vertex="1">
          <mxGeometry x="118" y="485" width="125" height="80" as="geometry" />
        </mxCell>
        <mxCell id="303ed1de8c2c98b4-16" value="数据权限" style="whiteSpace=wrap;html=1;rounded=1;shadow=1;strokeWidth=1;fontSize=16;align=center;fillColor=#f5f5f5;strokeColor=#666666;" parent="1" vertex="1">
          <mxGeometry x="268" y="485" width="125" height="80" as="geometry" />
        </mxCell>
        <mxCell id="303ed1de8c2c98b4-17" value="日报表" style="whiteSpace=wrap;html=1;rounded=1;shadow=1;strokeWidth=1;fontSize=16;align=center;fillColor=#f5f5f5;strokeColor=#666666;" parent="1" vertex="1">
          <mxGeometry x="1057" y="485" width="125" height="80" as="geometry" />
        </mxCell>
        <mxCell id="303ed1de8c2c98b4-18" value="Customer Service" style="whiteSpace=wrap;html=1;rounded=1;shadow=1;strokeWidth=1;fontSize=16;align=center;fillColor=#f5f5f5;strokeColor=#666666;" parent="1" vertex="1">
          <mxGeometry x="1207" y="485" width="125" height="80" as="geometry" />
        </mxCell>
        <mxCell id="303ed1de8c2c98b4-19" value="实时监控" style="whiteSpace=wrap;html=1;rounded=1;shadow=1;strokeWidth=1;fontSize=16;align=center;fillColor=#f5f5f5;strokeColor=#666666;" parent="1" vertex="1">
          <mxGeometry x="1357" y="485" width="125" height="80" as="geometry" />
        </mxCell>
        <mxCell id="303ed1de8c2c98b4-20" value="视频回放" style="whiteSpace=wrap;html=1;rounded=1;shadow=1;strokeWidth=1;fontSize=16;align=center;fillColor=#f5f5f5;strokeColor=#666666;" parent="1" vertex="1">
          <mxGeometry x="1507" y="485" width="125" height="80" as="geometry" />
        </mxCell>
        <mxCell id="303ed1de8c2c98b4-21" value="设备定期检修&lt;br&gt;消息推送" style="whiteSpace=wrap;html=1;rounded=1;shadow=1;strokeWidth=1;fontSize=16;align=center;fillColor=#f5f5f5;strokeColor=#666666;" parent="1" vertex="1">
          <mxGeometry x="440" y="595" width="125" height="80" as="geometry" />
        </mxCell>
        <mxCell id="303ed1de8c2c98b4-22" value="设备故障维修&lt;br&gt;消息推送" style="whiteSpace=wrap;html=1;rounded=1;shadow=1;strokeWidth=1;fontSize=16;align=center;fillColor=#f5f5f5;strokeColor=#666666;" parent="1" vertex="1">
          <mxGeometry x="590" y="595" width="125" height="80" as="geometry" />
        </mxCell>
        <mxCell id="303ed1de8c2c98b4-23" value="运维管理" style="whiteSpace=wrap;html=1;rounded=1;shadow=1;strokeWidth=1;fontSize=16;align=center;fillColor=#f5f5f5;strokeColor=#666666;" parent="1" vertex="1">
          <mxGeometry x="755" y="595" width="125" height="80" as="geometry" />
        </mxCell>
        <mxCell id="303ed1de8c2c98b4-24" value="&lt;span&gt;Content Specialist&lt;/span&gt;" style="whiteSpace=wrap;html=1;rounded=1;shadow=1;strokeWidth=1;fontSize=16;align=center;fillColor=#f5f5f5;strokeColor=#666666;" parent="1" vertex="1">
          <mxGeometry x="905" y="595" width="125" height="80" as="geometry" />
        </mxCell>
        <mxCell id="303ed1de8c2c98b4-27" value="Trade Show Team" style="whiteSpace=wrap;html=1;rounded=1;shadow=1;strokeWidth=1;fontSize=16;align=center;fillColor=#f5f5f5;strokeColor=#666666;" parent="1" vertex="1">
          <mxGeometry x="1057" y="595" width="125" height="80" as="geometry" />
        </mxCell>
        <mxCell id="303ed1de8c2c98b4-69" value="角色管理" style="whiteSpace=wrap;html=1;rounded=1;shadow=1;strokeWidth=1;fontSize=16;align=center;fillColor=#f5f5f5;strokeColor=#666666;" parent="1" vertex="1">
          <mxGeometry x="119" y="595" width="125" height="80" as="geometry" />
        </mxCell>
        <mxCell id="303ed1de8c2c98b4-70" value="功能权限" style="whiteSpace=wrap;html=1;rounded=1;shadow=1;strokeWidth=1;fontSize=16;align=center;fillColor=#f5f5f5;strokeColor=#666666;" parent="1" vertex="1">
          <mxGeometry x="269" y="595" width="125" height="80" as="geometry" />
        </mxCell>
        <mxCell id="303ed1de8c2c98b4-72" value="koa2" style="whiteSpace=wrap;html=1;rounded=1;shadow=1;strokeWidth=1;fontSize=16;align=center;fillColor=#f5f5f5;strokeColor=#666666;" parent="1" vertex="1">
          <mxGeometry x="500" y="233" width="242" height="40" as="geometry" />
        </mxCell>
        <mxCell id="303ed1de8c2c98b4-77" style="edgeStyle=orthogonalEdgeStyle;html=1;startSize=6;endFill=0;endSize=6;strokeWidth=1;fontSize=16;rounded=0;endArrow=none;" parent="1" source="303ed1de8c2c98b4-72" target="303ed1de8c2c98b4-3" edge="1">
          <mxGeometry relative="1" as="geometry" />
        </mxCell>
        <mxCell id="303ed1de8c2c98b4-78" style="edgeStyle=orthogonalEdgeStyle;html=1;startSize=6;endFill=0;endSize=6;strokeWidth=1;fontSize=16;rounded=0;endArrow=none;" parent="1" source="303ed1de8c2c98b4-2" target="303ed1de8c2c98b4-3" edge="1">
          <mxGeometry relative="1" as="geometry" />
        </mxCell>
        <mxCell id="303ed1de8c2c98b4-79" style="edgeStyle=orthogonalEdgeStyle;html=1;startSize=6;endFill=0;endSize=6;strokeWidth=1;fontSize=16;rounded=0;endArrow=none;" parent="1" source="303ed1de8c2c98b4-3" edge="1">
          <mxGeometry relative="1" as="geometry">
            <mxPoint x="885" y="380" as="targetPoint" />
          </mxGeometry>
        </mxCell>
        <mxCell id="303ed1de8c2c98b4-80" style="edgeStyle=orthogonalEdgeStyle;html=1;startSize=6;endFill=0;endSize=6;strokeWidth=1;fontSize=16;rounded=0;endArrow=none;" parent="1" target="303ed1de8c2c98b4-5" edge="1">
          <mxGeometry relative="1" as="geometry">
            <Array as="points">
              <mxPoint x="886" y="390" />
              <mxPoint x="578" y="390" />
            </Array>
            <mxPoint x="886" y="375" as="sourcePoint" />
          </mxGeometry>
        </mxCell>
        <mxCell id="303ed1de8c2c98b4-81" style="edgeStyle=elbowEdgeStyle;html=1;startSize=6;endFill=0;endSize=6;strokeWidth=1;fontSize=16;rounded=0;endArrow=none;" parent="1" target="303ed1de8c2c98b4-6" edge="1">
          <mxGeometry relative="1" as="geometry">
            <Array as="points">
              <mxPoint x="885" y="395" />
            </Array>
            <mxPoint x="885" y="375" as="sourcePoint" />
          </mxGeometry>
        </mxCell>
        <mxCell id="303ed1de8c2c98b4-82" style="edgeStyle=orthogonalEdgeStyle;html=1;startSize=6;endFill=0;endSize=6;strokeWidth=1;fontSize=16;rounded=0;endArrow=none;exitX=0.5;exitY=1;" parent="1" target="303ed1de8c2c98b4-7" edge="1">
          <mxGeometry relative="1" as="geometry">
            <Array as="points">
              <mxPoint x="885" y="390" />
              <mxPoint x="260" y="390" />
            </Array>
            <mxPoint x="885" y="375" as="sourcePoint" />
          </mxGeometry>
        </mxCell>
        <mxCell id="303ed1de8c2c98b4-83" style="edgeStyle=orthogonalEdgeStyle;html=1;startSize=6;endFill=0;endSize=6;strokeWidth=1;fontSize=16;rounded=0;endArrow=none;" parent="1" target="303ed1de8c2c98b4-8" edge="1">
          <mxGeometry relative="1" as="geometry">
            <Array as="points">
              <mxPoint x="885" y="390" />
              <mxPoint x="1195" y="390" />
            </Array>
            <mxPoint x="885" y="375" as="sourcePoint" />
          </mxGeometry>
        </mxCell>
        <mxCell id="303ed1de8c2c98b4-84" style="edgeStyle=orthogonalEdgeStyle;html=1;startSize=6;endFill=0;endSize=6;strokeWidth=1;fontSize=16;rounded=0;endArrow=none;" parent="1" target="303ed1de8c2c98b4-9" edge="1">
          <mxGeometry relative="1" as="geometry">
            <Array as="points">
              <mxPoint x="885" y="390" />
              <mxPoint x="1494" y="390" />
            </Array>
            <mxPoint x="885" y="375" as="sourcePoint" />
          </mxGeometry>
        </mxCell>
        <mxCell id="303ed1de8c2c98b4-85" style="edgeStyle=orthogonalEdgeStyle;html=1;startSize=6;endFill=0;endSize=6;strokeWidth=1;fontSize=16;rounded=0;entryX=1;entryY=0.5;endArrow=none;" parent="1" source="303ed1de8c2c98b4-5" target="303ed1de8c2c98b4-10" edge="1">
          <mxGeometry relative="1" as="geometry">
            <Array as="points">
              <mxPoint x="578" y="525" />
            </Array>
          </mxGeometry>
        </mxCell>
        <mxCell id="303ed1de8c2c98b4-86" style="edgeStyle=orthogonalEdgeStyle;html=1;startSize=6;endFill=0;endSize=6;strokeWidth=1;fontSize=16;rounded=0;entryX=1;entryY=0.5;endArrow=none;" parent="1" source="303ed1de8c2c98b4-5" target="303ed1de8c2c98b4-21" edge="1">
          <mxGeometry relative="1" as="geometry">
            <Array as="points">
              <mxPoint x="578" y="635" />
            </Array>
          </mxGeometry>
        </mxCell>
        <mxCell id="303ed1de8c2c98b4-89" style="edgeStyle=orthogonalEdgeStyle;html=1;startSize=6;endFill=0;endSize=6;strokeWidth=1;fontSize=16;rounded=0;entryX=0;entryY=0.5;endArrow=none;" parent="1" source="303ed1de8c2c98b4-5" target="303ed1de8c2c98b4-12" edge="1">
          <mxGeometry relative="1" as="geometry">
            <Array as="points">
              <mxPoint x="578" y="525" />
            </Array>
          </mxGeometry>
        </mxCell>
        <mxCell id="303ed1de8c2c98b4-90" style="edgeStyle=orthogonalEdgeStyle;html=1;startSize=6;endFill=0;endSize=6;strokeWidth=1;fontSize=16;rounded=0;entryX=0;entryY=0.5;endArrow=none;" parent="1" source="303ed1de8c2c98b4-5" target="303ed1de8c2c98b4-22" edge="1">
          <mxGeometry relative="1" as="geometry">
            <Array as="points">
              <mxPoint x="578" y="635" />
            </Array>
          </mxGeometry>
        </mxCell>
        <mxCell id="303ed1de8c2c98b4-92" style="edgeStyle=orthogonalEdgeStyle;html=1;startSize=6;endFill=0;endSize=6;strokeWidth=1;fontSize=16;rounded=0;endArrow=none;entryX=1;entryY=0.5;" parent="1" source="303ed1de8c2c98b4-6" target="303ed1de8c2c98b4-13" edge="1">
          <mxGeometry relative="1" as="geometry">
            <Array as="points">
              <mxPoint x="892" y="525" />
            </Array>
          </mxGeometry>
        </mxCell>
        <mxCell id="303ed1de8c2c98b4-93" style="edgeStyle=orthogonalEdgeStyle;html=1;startSize=6;endFill=0;endSize=6;strokeWidth=1;fontSize=16;rounded=0;endArrow=none;entryX=1;entryY=0.5;" parent="1" source="303ed1de8c2c98b4-6" target="303ed1de8c2c98b4-23" edge="1">
          <mxGeometry relative="1" as="geometry">
            <Array as="points">
              <mxPoint x="893" y="635" />
            </Array>
          </mxGeometry>
        </mxCell>
        <mxCell id="303ed1de8c2c98b4-96" style="edgeStyle=orthogonalEdgeStyle;html=1;startSize=6;endFill=0;endSize=6;strokeWidth=1;fontSize=16;rounded=0;endArrow=none;entryX=0;entryY=0.5;" parent="1" source="303ed1de8c2c98b4-6" target="303ed1de8c2c98b4-14" edge="1">
          <mxGeometry relative="1" as="geometry">
            <Array as="points">
              <mxPoint x="892" y="525" />
            </Array>
          </mxGeometry>
        </mxCell>
        <mxCell id="303ed1de8c2c98b4-97" style="edgeStyle=orthogonalEdgeStyle;html=1;startSize=6;endFill=0;endSize=6;strokeWidth=1;fontSize=16;rounded=0;endArrow=none;entryX=0;entryY=0.5;" parent="1" source="303ed1de8c2c98b4-6" target="303ed1de8c2c98b4-24" edge="1">
          <mxGeometry relative="1" as="geometry">
            <Array as="points">
              <mxPoint x="892" y="635" />
            </Array>
          </mxGeometry>
        </mxCell>
        <mxCell id="303ed1de8c2c98b4-99" style="edgeStyle=orthogonalEdgeStyle;html=1;startSize=6;endFill=0;endSize=6;strokeWidth=1;fontSize=16;rounded=0;endArrow=none;entryX=1;entryY=0.5;" parent="1" source="303ed1de8c2c98b4-7" target="303ed1de8c2c98b4-15" edge="1">
          <mxGeometry relative="1" as="geometry">
            <Array as="points">
              <mxPoint x="255" y="525" />
            </Array>
          </mxGeometry>
        </mxCell>
        <mxCell id="303ed1de8c2c98b4-100" style="edgeStyle=orthogonalEdgeStyle;html=1;startSize=6;endFill=0;endSize=6;strokeWidth=1;fontSize=16;rounded=0;endArrow=none;entryX=1;entryY=0.5;" parent="1" source="303ed1de8c2c98b4-7" target="303ed1de8c2c98b4-69" edge="1">
          <mxGeometry relative="1" as="geometry">
            <Array as="points">
              <mxPoint x="255" y="635" />
            </Array>
          </mxGeometry>
        </mxCell>
        <mxCell id="303ed1de8c2c98b4-101" style="edgeStyle=orthogonalEdgeStyle;html=1;startSize=6;endFill=0;endSize=6;strokeWidth=1;fontSize=16;rounded=0;endArrow=none;entryX=0;entryY=0.5;" parent="1" source="303ed1de8c2c98b4-7" target="303ed1de8c2c98b4-16" edge="1">
          <mxGeometry relative="1" as="geometry">
            <Array as="points">
              <mxPoint x="255" y="525" />
            </Array>
          </mxGeometry>
        </mxCell>
        <mxCell id="303ed1de8c2c98b4-102" style="edgeStyle=orthogonalEdgeStyle;html=1;startSize=6;endFill=0;endSize=6;strokeWidth=1;fontSize=16;rounded=0;endArrow=none;entryX=0;entryY=0.5;" parent="1" source="303ed1de8c2c98b4-7" target="303ed1de8c2c98b4-70" edge="1">
          <mxGeometry relative="1" as="geometry">
            <Array as="points">
              <mxPoint x="255" y="635" />
            </Array>
          </mxGeometry>
        </mxCell>
        <mxCell id="303ed1de8c2c98b4-103" style="edgeStyle=orthogonalEdgeStyle;html=1;startSize=6;endFill=0;endSize=6;strokeWidth=1;fontSize=16;rounded=0;endArrow=none;entryX=1;entryY=0.5;" parent="1" source="303ed1de8c2c98b4-8" target="303ed1de8c2c98b4-17" edge="1">
          <mxGeometry relative="1" as="geometry">
            <Array as="points">
              <mxPoint x="1195" y="525" />
            </Array>
          </mxGeometry>
        </mxCell>
        <mxCell id="303ed1de8c2c98b4-104" style="edgeStyle=orthogonalEdgeStyle;html=1;startSize=6;endFill=0;endSize=6;strokeWidth=1;fontSize=16;rounded=0;endArrow=none;entryX=0;entryY=0.5;" parent="1" source="303ed1de8c2c98b4-8" target="303ed1de8c2c98b4-18" edge="1">
          <mxGeometry relative="1" as="geometry">
            <Array as="points">
              <mxPoint x="1195" y="525" />
            </Array>
          </mxGeometry>
        </mxCell>
        <mxCell id="303ed1de8c2c98b4-105" style="edgeStyle=orthogonalEdgeStyle;html=1;startSize=6;endFill=0;endSize=6;strokeWidth=1;fontSize=16;rounded=0;endArrow=none;entryX=1;entryY=0.5;" parent="1" source="303ed1de8c2c98b4-8" target="303ed1de8c2c98b4-27" edge="1">
          <mxGeometry relative="1" as="geometry">
            <Array as="points">
              <mxPoint x="1195" y="635" />
            </Array>
          </mxGeometry>
        </mxCell>
        <mxCell id="303ed1de8c2c98b4-109" style="edgeStyle=orthogonalEdgeStyle;html=1;startSize=6;endFill=0;endSize=6;strokeWidth=1;fontSize=16;rounded=0;endArrow=none;entryX=1;entryY=0.5;" parent="1" source="303ed1de8c2c98b4-9" target="303ed1de8c2c98b4-19" edge="1">
          <mxGeometry relative="1" as="geometry">
            <Array as="points">
              <mxPoint x="1495" y="525" />
            </Array>
          </mxGeometry>
        </mxCell>
        <mxCell id="303ed1de8c2c98b4-114" style="edgeStyle=orthogonalEdgeStyle;html=1;startSize=6;endFill=0;endSize=6;strokeWidth=1;fontSize=16;rounded=0;endArrow=none;entryX=0;entryY=0.5;" parent="1" source="303ed1de8c2c98b4-9" target="303ed1de8c2c98b4-20" edge="1">
          <mxGeometry relative="1" as="geometry">
            <Array as="points">
              <mxPoint x="1495" y="525" />
            </Array>
          </mxGeometry>
        </mxCell>
        <mxCell id="DQcKy4j-hIthKDF_5MJU-2" value="socket.io" style="whiteSpace=wrap;html=1;rounded=1;shadow=1;strokeWidth=1;fontSize=16;align=center;fillColor=#f5f5f5;strokeColor=#666666;" vertex="1" parent="1">
          <mxGeometry x="771.5" y="233" width="242" height="40" as="geometry" />
        </mxCell>
        <mxCell id="DQcKy4j-hIthKDF_5MJU-4" value="" style="endArrow=none;html=1;rounded=0;entryX=0.47;entryY=1.012;entryDx=0;entryDy=0;entryPerimeter=0;" edge="1" parent="1" target="DQcKy4j-hIthKDF_5MJU-2">
          <mxGeometry width="50" height="50" relative="1" as="geometry">
            <mxPoint x="885" y="300" as="sourcePoint" />
            <mxPoint x="910" y="440" as="targetPoint" />
          </mxGeometry>
        </mxCell>
        <mxCell id="DQcKy4j-hIthKDF_5MJU-5" value="Content Specialist" style="whiteSpace=wrap;html=1;rounded=1;shadow=1;strokeWidth=1;fontSize=16;align=center;fillColor=#f5f5f5;strokeColor=#666666;" vertex="1" parent="1">
          <mxGeometry x="1357" y="595" width="125" height="80" as="geometry" />
        </mxCell>
        <mxCell id="DQcKy4j-hIthKDF_5MJU-6" value="&lt;span&gt;Content Specialist&lt;/span&gt;" style="whiteSpace=wrap;html=1;rounded=1;shadow=1;strokeWidth=1;fontSize=16;align=center;fillColor=#f5f5f5;strokeColor=#666666;" vertex="1" parent="1">
          <mxGeometry x="1507" y="595" width="125" height="80" as="geometry" />
        </mxCell>
        <mxCell id="DQcKy4j-hIthKDF_5MJU-7" value="Content Specialist" style="whiteSpace=wrap;html=1;rounded=1;shadow=1;strokeWidth=1;fontSize=16;align=center;fillColor=#f5f5f5;strokeColor=#666666;" vertex="1" parent="1">
          <mxGeometry x="1207" y="595" width="125" height="80" as="geometry" />
        </mxCell>
        <mxCell id="DQcKy4j-hIthKDF_5MJU-8" value="" style="endArrow=none;html=1;rounded=0;exitX=0;exitY=0.5;exitDx=0;exitDy=0;" edge="1" parent="1" source="DQcKy4j-hIthKDF_5MJU-7">
          <mxGeometry width="50" height="50" relative="1" as="geometry">
            <mxPoint x="1110" y="630" as="sourcePoint" />
            <mxPoint x="1190" y="635" as="targetPoint" />
          </mxGeometry>
        </mxCell>
        <mxCell id="DQcKy4j-hIthKDF_5MJU-9" value="" style="endArrow=none;html=1;rounded=0;entryX=1;entryY=0.5;entryDx=0;entryDy=0;exitX=0;exitY=0.5;exitDx=0;exitDy=0;" edge="1" parent="1" source="DQcKy4j-hIthKDF_5MJU-6" target="DQcKy4j-hIthKDF_5MJU-5">
          <mxGeometry width="50" height="50" relative="1" as="geometry">
            <mxPoint x="1500" y="635" as="sourcePoint" />
            <mxPoint x="1160" y="580" as="targetPoint" />
          </mxGeometry>
        </mxCell>
        <mxCell id="DQcKy4j-hIthKDF_5MJU-10" value="" style="endArrow=none;html=1;rounded=0;entryX=0.5;entryY=1;entryDx=0;entryDy=0;" edge="1" parent="1" target="303ed1de8c2c98b4-9">
          <mxGeometry width="50" height="50" relative="1" as="geometry">
            <mxPoint x="1495" y="640" as="sourcePoint" />
            <mxPoint x="1490" y="530" as="targetPoint" />
          </mxGeometry>
        </mxCell>
      </root>
    </mxGraphModel>
  </diagram>
</mxfile>
